<svg width="50" height="40" viewBox="0 0 50 40" fill="none" xmlns="http://www.w3.org/2000/svg" class="glow-effect-btn">
<g clip-path="url(#clip0_3026_6)">
<path d="M33.179 1.43063C28.5107 1.43063 28.7986 5.14672 28.7986 5.14672V24.768C33.4669 22.3851 36.7977 25.4368 36.7977 25.4368C36.7977 25.4368 38.1309 26.4865 37.75 27.0579C37.3691 27.6293 36.1289 28.679 34.9861 27.2484C33.8434 25.8177 31.8414 25.4413 30.0343 26.677C28.2272 27.9127 27.2705 32.1072 29.2725 35.7258C31.2745 39.3445 37.6525 36.9616 37.4665 33.8213C37.2805 30.681 39.1806 27.0579 43.2776 27.0579C47.3746 27.0579 49.0887 30.9645 49.0887 33.6308C49.0887 36.2972 47.3746 39.5349 43.468 39.5349C39.5615 39.5349 38.5162 36.7711 38.5162 36.7711C31.2789 44.4868 24.0372 35.2475 24.0372 35.2475C7.08226 46.5818 0.890256 34.1048 0.890256 34.1048C-3.29976 24.4846 8.69891 19.7232 8.69891 19.7232C8.69891 19.7232 2.88782 14.7713 7.74664 9.91252C12.6055 5.0537 22.0352 8.00797 22.0352 8.00797V12.0075C19.8428 9.81508 16.605 9.34116 14.4126 9.81508C12.2201 10.289 9.07983 13.2433 12.4106 17.3403C15.7458 21.4373 23.8423 29.7243 23.8423 29.7243V5.04927C23.8423 1.62108 19.6523 1.52364 19.6523 1.52364V0H33.179V1.43063ZM6.98482 34.6717C12.9864 39.721 19.8428 32.2932 19.8428 32.2932L10.9844 22.0042C0.0309935 28.1962 6.98482 34.6717 6.98482 34.6717ZM40.3233 33.148C40.3233 33.148 40.3233 38.0069 43.3706 38.0069C46.7102 38.0069 46.5153 32.9576 46.5153 32.9576C46.5153 32.9576 46.3072 28.5284 43.0871 28.8606C40.3233 29.1441 40.3233 33.148 40.3233 33.148Z" fill="white"/>
</g>
<defs>
<clipPath id="clip0_3026_6">
<rect width="49.0843" height="40" fill="white"/>
</clipPath>
</defs>
</svg>
