<svg width="240" height="35" viewBox="0 0 240 35" fill="none" xmlns="http://www.w3.org/2000/svg">
<g id="Logo">
<path id="Vector" d="M118.624 2.4198C118.624 2.06018 118.917 1.76467 119.285 1.75073C123.804 1.5751 126.578 1.68661 127.763 2.09363C130.236 2.94392 131.599 5.10725 131.599 8.18778C131.599 11.2683 130.417 14.8952 123.891 14.8952H118.557L118.624 2.41702V2.4198ZM133.235 23.0524C133.235 27.7694 130.654 30.2421 125.597 30.401C124.125 30.4484 122.812 30.4512 122.614 30.4457C119.673 30.362 118.63 29.6483 118.63 27.722L118.596 16.0494L123.974 16.055C129.042 16.055 133.235 16.5819 133.235 23.0524ZM116.249 31.335L124.504 31.36C132.962 31.36 137.621 28.3325 137.621 22.8377C137.621 19.0658 135.137 16.2195 130.98 15.2242L130.035 14.9984L130.941 14.6471C134.074 13.44 135.803 11.0035 135.803 7.78913C135.803 5.39161 134.37 3.01361 132.321 2.00163C130.043 0.861418 127.777 0.635607 124.858 0.635607L111.471 0.618881L111.348 1.45801C114.066 1.63922 114.655 1.87618 114.655 3.74401V28.3715C114.655 29.9689 113.576 30.3035 111.454 30.3648C111.426 30.5544 111.354 31.0144 111.329 31.1984C111.479 31.2653 115.209 31.3155 116.255 31.335H116.249Z" fill="white"/>
<path id="Vector_2" d="M94.0192 30.8332C87.0775 30.8332 83.4478 23.6964 83.4478 16.6432C83.4478 6.02445 89.0262 1.27123 94.5516 1.27123C98.0838 1.27123 105.377 4.93442 105.377 16.2557C105.377 23.3228 101.396 30.8332 94.0192 30.8332ZM94.2338 0.317808C89.0011 0.317808 79.1072 3.69384 79.1072 16.4704C79.1072 22.1603 82.249 31.7866 94.0192 31.7866C106.417 31.7866 109.726 22.0516 109.726 16.2975C109.726 5.31634 101.694 0.315018 94.2338 0.315018V0.317808Z" fill="white"/>
<path id="Vector_3" d="M72.8486 3.70778C72.8486 3.70778 69.3081 0.31781 63.292 0.31781C54.2483 0.31781 47.683 7.02249 47.683 16.2557C47.683 25.4889 53.5123 31.7866 62.8933 31.7866C69.3499 31.7866 73.0911 28.3715 73.0911 28.3715L74.209 30.6938C74.223 30.7244 74.2564 30.744 74.2899 30.744H74.9227L74.998 21.0786L74.3149 20.9783C73.0186 27.039 68.6975 30.7969 63.0215 30.7969C56.1329 30.7969 52.0181 23.5347 52.0181 16.5122C52.0181 9.4897 55.5474 1.27124 63.2947 1.27124C70.0357 1.27124 73.2918 6.64892 74.0975 11.7088L74.7889 11.7952L74.8641 1.72008C74.6997 1.6922 74.3484 1.63644 74.301 1.62528C74.301 1.62528 74.2787 1.6225 74.2202 1.68662C74.1365 1.7814 72.8513 3.705 72.8513 3.705L72.8486 3.70778Z" fill="white"/>
<path id="Vector_4" d="M26.9361 18.5083L31.6949 6.0356L36.7102 18.5083H26.9361ZM46.5484 29.9438C45.7455 29.5229 45.0764 28.5332 44.2456 26.5288C43.4177 24.5327 41.4606 19.6206 39.5677 14.8702C37.5577 9.82424 35.6564 5.05708 35.1685 3.92523C34.7085 2.8575 33.8499 0.691377 33.5767 0C33.2951 0.56035 32.3947 2.08807 30.524 3.1781C30.7443 3.65203 31.0816 4.55807 31.0816 4.55807C31.0816 4.55807 22.8938 25.7148 22.2024 27.446C21.564 29.0462 20.828 30.1 19.1693 30.3927L19.0717 31.1733L26.9975 31.1844L27.1118 30.4066C26.635 30.3592 24.7449 30.1502 24.2264 29.7403C23.6242 29.2636 23.3287 28.7284 23.7218 27.5352C24.3351 25.6702 26.557 19.5481 26.557 19.5481H37.1311C37.1311 19.5481 39.7545 26.5204 39.8019 26.6487C40.1977 27.7889 40.5072 28.6893 40.0528 29.3417C39.5454 30.0693 38.4191 30.4066 36.6461 30.376L36.5206 31.1733H47.9897L48.09 30.4484C47.8391 30.4066 47.1673 30.27 46.5512 29.9466L46.5484 29.9438Z" fill="white"/>
<path id="Vector_5" d="M21.2852 1.36325L21.3689 0.749926L10.4239 0.70253L9.89145 1.31306C12.1189 1.37718 12.5984 1.58627 13.2368 2.31946C13.6996 2.84915 13.8362 4.17893 13.8446 4.80898C13.8557 5.57284 13.8418 21.1121 13.8418 21.1121C13.8418 24.7753 13.4849 26.6989 12.5259 28.2098C11.4554 29.8965 9.71582 30.8611 7.7532 30.8611H7.74763C6.28403 30.8611 4.64479 30.0498 4.35207 28.5026C4.31862 28.3186 4.28517 27.4962 4.16251 27.17C3.91439 26.4981 3.28156 25.9629 2.53164 25.7649C1.43881 25.4806 0.661015 25.9601 0.318115 26.4368C-0.130722 27.0641 -0.102844 28.037 0.390599 28.8009C1.38585 30.3397 3.99802 31.2458 6.11118 31.5803C8.12119 31.8981 10.2845 31.7448 12.0409 31.1594C13.4125 30.7022 14.4161 30.0386 15.5005 28.8678C17.031 27.2174 17.714 24.4547 17.714 19.7433C17.714 15.0319 17.7029 4.8034 17.714 4.12596C17.7224 3.44852 17.6973 2.7683 18.227 2.21074C19.0243 1.37439 20.8559 1.35488 21.2908 1.36603L21.2852 1.36325Z" fill="white"/>
<path id="Vector_6" d="M224.291 30.8332C217.349 30.8332 213.719 23.6964 213.719 16.6432C213.719 6.02445 219.298 1.27123 224.826 1.27123C228.358 1.27123 235.651 4.93442 235.651 16.2557C235.651 23.3228 231.67 30.8332 224.293 30.8332H224.291ZM224.508 0.317808C219.275 0.317808 209.381 3.69384 209.381 16.4704C209.381 22.1603 212.521 31.7866 224.291 31.7866C236.691 31.7866 240 22.0516 240 16.2975C240 5.31634 231.968 0.315018 224.508 0.315018V0.317808Z" fill="white"/>
<path id="Vector_7" d="M153.285 27.8446C149.968 26.9525 148.03 23.557 148.401 19.6596C148.694 16.593 151.049 15.2577 152.028 14.583C153.542 16.6488 157.888 21.6139 161.515 25.3691C158.267 28.1847 155.435 28.4217 153.282 27.8446H153.285ZM151.925 3.85275C152.251 3.01641 152.903 2.40309 153.804 2.07692C156.544 1.08724 159.067 2.42539 160.048 4.19007C161.175 6.21402 160.297 8.63105 157.813 10.3483C157.252 10.7358 155.393 11.8482 155.393 11.8482C155.393 11.8482 153.349 9.63187 152.376 7.69992C151.671 6.29487 151.498 4.93442 151.925 3.85275ZM193.162 31.7866C199.532 31.7866 203.36 28.3715 203.36 28.3715L204.481 30.6938C204.494 30.7244 204.525 30.744 204.561 30.744H205.194L205.267 21.0786L204.584 20.9783C203.287 27.039 198.969 30.7969 193.29 30.7969C186.402 30.7969 182.284 23.5347 182.284 16.5122C182.284 9.4897 185.813 1.27123 193.561 1.27123C200.302 1.27123 203.555 6.64892 204.363 11.7088L205.055 11.7952L205.13 1.72008C204.966 1.6922 204.617 1.63643 204.567 1.62528C204.556 1.62528 204.542 1.62528 204.486 1.68661C204.402 1.7814 203.117 3.70499 203.117 3.70499C203.117 3.70499 199.577 0.315018 193.561 0.315018C184.517 0.315018 178.063 6.93327 177.929 16.1665C177.787 25.882 184.322 29.4616 184.322 29.4616C184.322 29.4616 181.963 32.4835 178.437 32.6118C172.421 32.8292 166.536 24.1145 165.306 23.0412C166.622 21.3574 169.003 17.5883 170.492 16.6042C171.911 15.6647 173.204 15.5643 173.569 15.5615L173.681 14.9287H165.903C165.844 15.2437 165.805 15.4389 165.777 15.5615C166.483 15.5755 167.484 15.6089 167.966 15.9769C168.331 16.2585 168.39 16.5958 167.734 17.7583C166.973 19.1021 165.526 21.1344 164.606 22.2383C162.937 20.2897 157.581 14.0589 155.917 12.4141C159.728 10.6996 163.221 9.03528 163.344 5.85439C163.405 4.28207 162.201 1.46917 158.707 0.613315C157.623 0.348473 154.835 -0.0585477 152.337 1.89292C151.468 2.57314 149.446 4.52461 149.469 7.9341C149.48 9.7406 150.001 11.5387 151.534 13.8526C143.595 17.8531 144.671 23.6796 145.036 25.3635C145.552 27.7248 148.32 31.3712 153.564 31.2625C159.095 31.1454 162.521 26.4201 162.521 26.4201C162.521 26.4201 164.52 28.444 165.775 29.5759C170.857 34.1562 175.956 34.7138 179.047 33.7938C182.987 32.6229 184.927 29.8017 184.927 29.8017C184.927 29.8017 187.949 31.7838 193.159 31.7838L193.162 31.7866Z" fill="white"/>
</g>
</svg>
