<svg width="220" height="43" viewBox="0 0 220 43" fill="none" xmlns="http://www.w3.org/2000/svg">
<g opacity="0.8">
<path d="M108.831 9.91221C108.831 9.62802 109.08 9.39451 109.392 9.38349C113.233 9.2447 115.591 9.33282 116.598 9.65446C118.7 10.3264 119.859 12.0359 119.859 14.4703C119.859 16.9046 118.854 19.7707 113.307 19.7707H108.774L108.831 9.91002V9.91221ZM121.25 26.2167C121.25 29.9442 119.056 31.8983 114.757 32.0239C113.506 32.0613 112.39 32.0636 112.222 32.0591C109.722 31.9931 108.835 31.4291 108.835 29.9068L108.807 20.6828L113.378 20.6872C117.686 20.6872 121.25 21.1035 121.25 26.2167ZM106.812 32.7619L113.828 32.7817C121.018 32.7817 124.977 30.3893 124.977 26.0471C124.977 23.0664 122.866 20.8171 119.333 20.0307L118.53 19.8522L119.3 19.5746C121.963 18.6207 123.432 16.6953 123.432 14.1552C123.432 12.2606 122.214 10.3815 120.473 9.58176C118.537 8.68073 116.61 8.50228 114.129 8.50228L102.75 8.48907L102.646 9.15218C104.956 9.29537 105.456 9.48263 105.456 10.9586V30.4201C105.456 31.6824 104.539 31.9468 102.736 31.9953C102.712 32.1451 102.651 32.5086 102.629 32.654C102.757 32.7068 105.928 32.7465 106.817 32.7619H106.812Z" fill="#D8D8FC"/>
<path d="M87.9163 32.3654C82.0159 32.3654 78.9306 26.7256 78.9306 21.152C78.9306 12.7607 83.6723 9.00457 88.3689 9.00457C91.3712 9.00457 97.5702 11.8993 97.5702 20.8458C97.5702 26.4304 94.1864 32.3654 87.9163 32.3654ZM88.0988 8.25114C83.651 8.25114 75.2411 10.919 75.2411 21.0154C75.2411 25.5118 77.9117 33.1188 87.9163 33.1188C98.4541 33.1188 101.267 25.4259 101.267 20.8788C101.267 12.2011 94.4399 8.24894 88.0988 8.24894V8.25114Z" fill="#D8D8FC"/>
<path d="M69.9213 10.93C69.9213 10.93 66.9118 8.25114 61.7982 8.25114C54.111 8.25114 48.5305 13.5494 48.5305 20.8458C48.5305 28.1422 53.4855 33.1188 61.4593 33.1188C66.9474 33.1188 70.1274 30.4201 70.1274 30.4201L71.0777 32.2552C71.0895 32.2794 71.1179 32.2949 71.1464 32.2949H71.6843L71.7483 24.657L71.1677 24.5777C70.0658 29.3671 66.3929 32.3367 61.5683 32.3367C55.7129 32.3367 52.2153 26.5979 52.2153 21.0485C52.2153 15.4991 55.2153 9.00457 61.8005 9.00457C67.5303 9.00457 70.298 13.2542 70.9829 17.2527L71.5705 17.321L71.6345 9.35926C71.4947 9.33723 71.1961 9.29317 71.1558 9.28435C71.1558 9.28435 71.1369 9.28215 71.0871 9.33282C71.016 9.40772 69.9236 10.9278 69.9236 10.9278L69.9213 10.93Z" fill="#D8D8FC"/>
<path d="M30.8957 22.6258L34.9407 12.7695L39.2037 22.6258H30.8957ZM47.5661 31.6626C46.8837 31.3299 46.3149 30.5479 45.6088 28.9639C44.905 27.3866 43.2415 23.5048 41.6325 19.7509C39.924 15.7634 38.3079 11.9963 37.8932 11.1018C37.5023 10.2581 36.7724 8.54635 36.5402 8C36.3009 8.44281 35.5355 9.65006 33.9454 10.5114C34.1326 10.886 34.4194 11.6019 34.4194 11.6019C34.4194 11.6019 27.4597 28.3206 26.8721 29.6887C26.3294 30.9532 25.7038 31.786 24.2939 32.0173L24.211 32.6341L30.9478 32.6429L31.045 32.0283C30.6398 31.9909 29.0332 31.8256 28.5924 31.5018C28.0806 31.1251 27.8294 30.7021 28.1635 29.7592C28.6848 28.2854 30.5734 23.4476 30.5734 23.4476H39.5615C39.5615 23.4476 41.7913 28.9573 41.8316 29.0586C42.1681 29.9597 42.4311 30.6712 42.0449 31.1868C41.6136 31.7617 40.6562 32.0283 39.1492 32.0041L39.0425 32.6341H48.7912L48.8765 32.0613C48.6632 32.0283 48.0922 31.9204 47.5685 31.6648L47.5661 31.6626Z" fill="#D8D8FC"/>
<path d="M26.0924 9.07729L26.1635 8.59262L16.8603 8.55517L16.4077 9.03763C18.3011 9.0883 18.7087 9.25353 19.2513 9.83292C19.6447 10.2515 19.7608 11.3023 19.7679 11.8002C19.7774 12.4038 19.7655 24.6835 19.7655 24.6835C19.7655 27.5782 19.4622 29.0983 18.647 30.2923C17.7371 31.6252 16.2584 32.3874 14.5902 32.3874H14.5855C13.3414 32.3874 11.9481 31.7463 11.6993 30.5237C11.6708 30.3783 11.6424 29.7284 11.5381 29.4706C11.3272 28.9397 10.7893 28.5167 10.1519 28.3603C9.22299 28.1356 8.56186 28.5145 8.2704 28.8912C7.88889 29.3869 7.91258 30.1558 8.33201 30.7594C9.17797 31.9754 11.3983 32.6914 13.1945 32.9558C14.903 33.2069 16.7419 33.0858 18.2347 32.6231C19.4006 32.2618 20.2537 31.7375 21.1754 30.8123C22.4764 29.5081 23.0569 27.3249 23.0569 23.6018C23.0569 19.8787 23.0475 11.7958 23.0569 11.2605C23.064 10.7251 23.0427 10.1876 23.493 9.747C24.1707 9.0861 25.7275 9.07068 26.0972 9.07949L26.0924 9.07729Z" fill="#D8D8FC"/>
<path d="M198.647 32.3654C192.747 32.3654 189.661 26.7256 189.661 21.152C189.661 12.7607 194.403 9.00457 199.102 9.00457C202.104 9.00457 208.303 11.8993 208.303 20.8458C208.303 26.4304 204.92 32.3654 198.649 32.3654H198.647ZM198.832 8.25114C194.384 8.25114 185.974 10.919 185.974 21.0154C185.974 25.5118 188.642 33.1188 198.647 33.1188C209.187 33.1188 212 25.4259 212 20.8788C212 12.2011 205.173 8.24894 198.832 8.24894V8.25114Z" fill="#D8D8FC"/>
<path d="M138.292 30.0037C135.473 29.2988 133.826 26.6155 134.141 23.5357C134.39 21.1124 136.392 20.0571 137.224 19.524C138.51 21.1564 142.205 25.08 145.288 28.0475C142.527 30.2725 140.119 30.4598 138.29 30.0037H138.292ZM137.136 11.0446C137.413 10.3837 137.968 9.899 138.733 9.64125C141.063 8.85918 143.207 9.91662 144.041 11.3111C144.999 12.9105 144.252 14.8205 142.141 16.1776C141.664 16.4838 140.084 17.3628 140.084 17.3628C140.084 17.3628 138.347 15.6114 137.52 14.0847C136.92 12.9744 136.773 11.8993 137.136 11.0446ZM172.188 33.1188C177.602 33.1188 180.856 30.4201 180.856 30.4201L181.808 32.2552C181.82 32.2794 181.846 32.2949 181.877 32.2949H182.415L182.477 24.657L181.896 24.5777C180.794 29.3671 177.124 32.3367 172.297 32.3367C166.441 32.3367 162.941 26.5979 162.941 21.0485C162.941 15.4991 165.941 9.00457 172.527 9.00457C178.256 9.00457 181.022 13.2542 181.709 17.2527L182.297 17.321L182.361 9.35926C182.221 9.33723 181.925 9.29317 181.882 9.28435C181.872 9.28435 181.861 9.28435 181.813 9.33282C181.742 9.40772 180.65 10.9278 180.65 10.9278C180.65 10.9278 177.64 8.24894 172.527 8.24894C164.839 8.24894 159.354 13.4789 159.24 20.7753C159.119 28.4528 164.674 31.2815 164.674 31.2815C164.674 31.2815 162.669 33.6695 159.671 33.7709C154.558 33.9427 149.555 27.0561 148.51 26.2079C149.629 24.8773 151.652 21.8988 152.918 21.1212C154.124 20.3787 155.223 20.2994 155.534 20.2972L155.629 19.7972H149.017C148.968 20.0461 148.934 20.2003 148.911 20.2972C149.51 20.3083 150.361 20.3347 150.771 20.6255C151.081 20.848 151.131 21.1146 150.574 22.0332C149.927 23.0951 148.698 24.7011 147.916 25.5735C146.496 24.0336 141.944 19.1098 140.529 17.81C143.769 16.4552 146.738 15.14 146.842 12.6263C146.894 11.3838 145.871 9.16099 142.901 8.48466C141.98 8.27538 139.61 7.95374 137.487 9.49585C136.747 10.0334 135.029 11.5755 135.048 14.2698C135.058 15.6973 135.501 17.1183 136.804 18.9468C130.056 22.1081 130.97 26.7124 131.281 28.043C131.719 29.909 134.072 32.7906 138.529 32.7046C143.231 32.6121 146.143 28.878 146.143 28.878C146.143 28.878 147.842 30.4774 148.908 31.3718C153.228 34.9914 157.562 35.432 160.19 34.705C163.539 33.7797 165.188 31.5503 165.188 31.5503C165.188 31.5503 167.756 33.1166 172.185 33.1166L172.188 33.1188Z" fill="#D8D8FC"/>
</g>
</svg>
