<svg width="1760" height="1760" viewBox="0 0 1760 1760" fill="none" xmlns="http://www.w3.org/2000/svg">
<g clip-path="url(#clip0_3040_460)">
<path d="M956.693 1756.65L949.391 1673.16" stroke="#D19E00" stroke-miterlimit="10" stroke-linecap="round"/>
<path d="M1047.91 1743.83L1031.93 1661.57" stroke="#D19E00" stroke-miterlimit="10" stroke-linecap="round"/>
<path d="M1137.29 1721.54L1112.79 1641.4" stroke="#D19E00" stroke-miterlimit="10" stroke-linecap="round"/>
<path d="M1223.84 1690.05L1191.1 1612.9" stroke="#D19E00" stroke-miterlimit="10" stroke-linecap="round"/>
<path d="M1306.63 1649.66L1266 1576.36" stroke="#D19E00" stroke-width="4" stroke-miterlimit="10" stroke-linecap="round"/>
<path d="M1384.75 1600.86L1336.68 1532.21" stroke="#D19E00" stroke-miterlimit="10" stroke-linecap="round"/>
<path d="M1457.34 1544.14L1402.35 1480.9" stroke="#D19E00" stroke-miterlimit="10" stroke-linecap="round"/>
<path d="M1523.59 1480.15L1462.29 1423" stroke="#D19E00" stroke-miterlimit="10" stroke-linecap="round"/>
<path d="M1582.81 1409.6L1515.87 1359.16" stroke="#D19E00" stroke-miterlimit="10" stroke-linecap="round"/>
<path d="M1634.31 1333.23L1562.47 1290.07" stroke="#D19E00" stroke-width="4" stroke-miterlimit="10" stroke-linecap="round"/>
<path d="M1677.55 1251.91L1601.6 1216.48" stroke="#D19E00" stroke-miterlimit="10" stroke-linecap="round"/>
<path d="M1712.05 1166.51L1632.81 1139.22" stroke="#D19E00" stroke-miterlimit="10" stroke-linecap="round"/>
<path d="M1737.44 1077.95L1655.79 1059.11" stroke="#D19E00" stroke-miterlimit="10" stroke-linecap="round"/>
<path d="M1753.44 987.241L1670.26 977.03" stroke="#D19E00" stroke-miterlimit="10" stroke-linecap="round"/>
<path d="M1759.87 895.358L1676.07 893.895" stroke="#D19E00" stroke-width="4" stroke-miterlimit="10" stroke-linecap="round"/>
<path d="M1756.65 803.307L1673.16 810.609" stroke="#D19E00" stroke-miterlimit="10" stroke-linecap="round"/>
<path d="M1743.83 712.094L1661.57 728.072" stroke="#D19E00" stroke-miterlimit="10" stroke-linecap="round"/>
<path d="M1721.54 622.707L1641.4 647.209" stroke="#D19E00" stroke-miterlimit="10" stroke-linecap="round"/>
<path d="M1690.05 536.155L1612.9 568.904" stroke="#D19E00" stroke-miterlimit="10" stroke-linecap="round"/>
<path d="M1649.66 453.368L1576.36 493.999" stroke="#D19E00" stroke-width="4" stroke-miterlimit="10" stroke-linecap="round"/>
<path d="M1600.86 375.252L1532.21 423.321" stroke="#D19E00" stroke-miterlimit="10" stroke-linecap="round"/>
<path d="M1544.14 302.678L1480.9 357.651" stroke="#D19E00" stroke-miterlimit="10" stroke-linecap="round"/>
<path d="M1480.15 236.41L1423 297.714" stroke="#D19E00" stroke-miterlimit="10" stroke-linecap="round"/>
<path d="M1409.6 177.195L1359.16 244.127" stroke="#D19E00" stroke-miterlimit="10" stroke-linecap="round"/>
<path d="M1333.23 125.694L1290.07 197.531" stroke="#D19E00" stroke-width="4" stroke-miterlimit="10" stroke-linecap="round"/>
<path d="M1251.91 82.4473L1216.48 158.401" stroke="#D19E00" stroke-miterlimit="10" stroke-linecap="round"/>
<path d="M1166.51 47.9516L1139.22 127.19" stroke="#D19E00" stroke-miterlimit="10" stroke-linecap="round"/>
<path d="M1077.95 22.5584L1059.11 104.208" stroke="#D19E00" stroke-miterlimit="10" stroke-linecap="round"/>
<path d="M987.241 6.55763L977.03 89.7407" stroke="#D19E00" stroke-miterlimit="10" stroke-linecap="round"/>
<path d="M895 9.53674e-07L895 105" stroke="#D91A2A" stroke-width="6" stroke-miterlimit="10" stroke-linecap="round"/>
<path d="M803.307 3.34705L810.609 86.8358" stroke="#D19E00" stroke-miterlimit="10" stroke-linecap="round"/>
<path d="M712.094 16.1724L728.072 98.4295" stroke="#D19E00" stroke-miterlimit="10" stroke-linecap="round"/>
<path d="M622.707 38.4595L647.209 118.602" stroke="#D19E00" stroke-miterlimit="10" stroke-linecap="round"/>
<path d="M536.155 69.9538L568.904 147.097" stroke="#D19E00" stroke-miterlimit="10" stroke-linecap="round"/>
<path d="M453.368 110.336L493.999 183.635" stroke="#D19E00" stroke-width="4" stroke-miterlimit="10" stroke-linecap="round"/>
<path d="M375.252 159.14L423.321 227.791" stroke="#D19E00" stroke-miterlimit="10" stroke-linecap="round"/>
<path d="M302.678 215.857L357.651 279.097" stroke="#D19E00" stroke-miterlimit="10" stroke-linecap="round"/>
<path d="M236.41 279.852L297.714 336.999" stroke="#D19E00" stroke-miterlimit="10" stroke-linecap="round"/>
<path d="M177.195 350.402L244.127 400.837" stroke="#D19E00" stroke-miterlimit="10" stroke-linecap="round"/>
<path d="M125.694 426.767L197.531 469.932" stroke="#D19E00" stroke-width="4" stroke-miterlimit="10" stroke-linecap="round"/>
<path d="M82.4473 508.095L158.401 543.515" stroke="#D19E00" stroke-miterlimit="10" stroke-linecap="round"/>
<path d="M47.9516 593.494L127.19 620.778" stroke="#D19E00" stroke-miterlimit="10" stroke-linecap="round"/>
<path d="M22.5584 682.049L104.208 700.889" stroke="#D19E00" stroke-miterlimit="10" stroke-linecap="round"/>
<path d="M6.55763 772.759L89.7407 782.97" stroke="#D19E00" stroke-miterlimit="10" stroke-linecap="round"/>
<path d="M0.134031 864.642L83.9308 866.105" stroke="#D19E00" stroke-width="4" stroke-miterlimit="10" stroke-linecap="round"/>
<path d="M3.34706 956.693L86.8358 949.391" stroke="#D19E00" stroke-miterlimit="10" stroke-linecap="round"/>
<path d="M16.1724 1047.91L98.4295 1031.93" stroke="#D19E00" stroke-miterlimit="10" stroke-linecap="round"/>
<path d="M38.4595 1137.29L118.602 1112.79" stroke="#D19E00" stroke-miterlimit="10" stroke-linecap="round"/>
<path d="M69.9538 1223.84L147.097 1191.1" stroke="#D19E00" stroke-miterlimit="10" stroke-linecap="round"/>
<path d="M110.336 1306.63L183.635 1266" stroke="#D19E00" stroke-width="4" stroke-miterlimit="10" stroke-linecap="round"/>
<path d="M159.14 1384.75L227.791 1336.68" stroke="#D19E00" stroke-miterlimit="10" stroke-linecap="round"/>
<path d="M215.857 1457.34L279.097 1402.35" stroke="#D19E00" stroke-miterlimit="10" stroke-linecap="round"/>
<path d="M279.852 1523.59L336.999 1462.29" stroke="#D19E00" stroke-miterlimit="10" stroke-linecap="round"/>
<path d="M350.402 1582.81L400.837 1515.87" stroke="#D19E00" stroke-miterlimit="10" stroke-linecap="round"/>
<path d="M426.767 1634.31L469.932 1562.47" stroke="#D19E00" stroke-width="2" stroke-miterlimit="10" stroke-linecap="round"/>
<path d="M508.095 1677.55L543.515 1601.6" stroke="#D19E00" stroke-miterlimit="10" stroke-linecap="round"/>
<path d="M593.494 1712.05L620.778 1632.81" stroke="#D19E00" stroke-miterlimit="10" stroke-linecap="round"/>
<path d="M682.049 1737.44L700.889 1655.79" stroke="#D19E00" stroke-miterlimit="10" stroke-linecap="round"/>
<path d="M772.759 1753.44L782.97 1670.26" stroke="#D19E00" stroke-miterlimit="10" stroke-linecap="round"/>
<path d="M864.642 1759.87L866.105 1676.07" stroke="#D19E00" stroke-width="4" stroke-miterlimit="10" stroke-linecap="round"/>
</g>
<defs>
<clipPath id="clip0_3040_460">
<rect width="1760" height="1760" fill="white"/>
</clipPath>
</defs>
</svg>
